<svg xmlns="http://www.w3.org/2000/svg" viewBox="0 0 1024 1024"><g fill="none" stroke-width="2"><path stroke="#ffac3b" d="m1024 119.05-.43.76q-.28.48-.59.03-.75-1.09-2.04-1.09H3.53c-1.23 0-1.8.54-2.9.98q-.14.06-.13.02 0-.13.01-.26.04-.62-.21.11-.14.42-.3.34" vector-effect="non-scaling-stroke"/><path stroke="#fea33e" d="M1024 192.11q-1.99-1.19-3.44-1.19-286-.02-572 .17-5.24.01-9.85-.18" vector-effect="non-scaling-stroke"/><path stroke="#ffd39e" d="M438.71 190.91c-21.37-49.86-90.16-49.92-109.97 1.07" vector-effect="non-scaling-stroke"/><path stroke="#fea33e" d="M328.74 191.98q-.4-.13-.59-.73a.04.04 0 0 0-.07 0q-.06.19-.12.4-.11.42-.17-.01l-.05-.36q-.01-.08-.08-.09-1.42-.25-5.47-.25-159.67-.07-319.34 0-.49 0-.91.26-.91.59-1.94.75" vector-effect="non-scaling-stroke"/><path stroke="#ffcf9f" d="M438.71 190.91q3.06 8.8 4.66 18.58" vector-effect="non-scaling-stroke"/><path stroke="#ffeee2" d="M443.37 209.49c-.84 4.01-.76 8.41-1.39 11.98q-22.02 126.05-44.35 252.05" vector-effect="non-scaling-stroke"/><path stroke="#fec3a2" d="m397.63 473.52-16.3 92.5" vector-effect="non-scaling-stroke"/><path stroke="#febca3" d="m381.33 566.02-21.72 123.24" vector-effect="non-scaling-stroke"/><path stroke="#fdb5a5" d="M359.61 689.26q-6.33 35.84-12.65 71.73-4.17 23.69-21.97 37.63c-33.28 26.06-81.05 9.99-92.89-30.14q-3.73-12.63-1.54-25.17 4.47-25.52 8.99-51.05" vector-effect="non-scaling-stroke"/><path stroke="#febca3" d="m239.55 692.26 23.58-133.75" vector-effect="non-scaling-stroke"/><path stroke="#fec3a2" d="m263.13 558.51 23.41-132.74" vector-effect="non-scaling-stroke"/><path stroke="#fec9a0" d="m286.54 425.77 21.28-120.76" vector-effect="non-scaling-stroke"/><path stroke="#ffcf9f" d="M307.82 305.01q9.17-52.13 18.43-104.26.48-2.71 2.49-8.77" vector-effect="non-scaling-stroke"/><path stroke="#fe9940" d="M1024 305.31q-.33-.3-.3-1.08.01-.26-.18-.08-.13.13-.11.36.12 1.44.07 2.89a.38.37.8 0 1-.38.36q-201-.02-399.68 0c-1.93 0-3.96.31-5.93.5" vector-effect="non-scaling-stroke"/><path stroke="#ffcf9f" d="M617.49 308.26c-16.62-47.24-81.62-49.37-100.01-2.27" vector-effect="non-scaling-stroke"/><path stroke="#fe9940" d="M517.48 305.99q-.97-.23-.7-1.34.17-.66-.51-.66l-52.29.05q-.49 0-.66.47-.15.42-.33.5" vector-effect="non-scaling-stroke"/><path stroke="#febd82" d="m462.99 305.01-19.62-95.52" vector-effect="non-scaling-stroke"/><path stroke="#fe9940" d="m307.82 305.01-2.91-.86q-.47-.14-.96-.14-148.88-.03-297.76.01c-1.14 0-2.35.43-3.48.69a.93.93 0 0 0-.66.54L0 309.96" vector-effect="non-scaling-stroke"/><path stroke="#feb883" d="m462.99 305.01 28.13 136.97" vector-effect="non-scaling-stroke"/><path stroke="#fed0b9" d="M491.12 441.98q-.12 1.01-.72 1.95-.31.5-.57-.03-.53-1.13-1.56-.39-7.22 5.24-16 13.64c-3.43 3.29-5.99 4.3-10.56 3.47a1.09 1.06-59.5 0 0-.91.25q-5.04 4.4-10.06 8.83c-.67.58-1.88 1.05-2.4 1.64q-3.65 4.16-7.74 7.87c-3.42 3.11-8.52 5.57-12.26 9.11q-1.62 1.53-.41 3.1.42.55-.28.56l-2.42.03q-.66.01-.15.41.25.2.55.23a.7.7 0 0 1 .41 1.22c-6.66 6.01-14.62 11.66-20.12 17.94" vector-effect="non-scaling-stroke"/><path stroke="#feb185" d="M405.92 511.81q-3.97-18.92-7.69-37.79-.05-.24-.18-.36-.23-.21-.42-.14" vector-effect="non-scaling-stroke"/><path stroke="#fec9a0" d="m617.49 308.26 3.03 13.67" vector-effect="non-scaling-stroke"/><path stroke="#ffeee2" d="M620.52 321.93q-.43 7.7-1.52 13.82-15.64 88.23-31.09 176.41" vector-effect="non-scaling-stroke"/><path stroke="#febca3" d="m587.91 512.16-28 158.55" vector-effect="non-scaling-stroke"/><path stroke="#fdb5a5" d="M559.91 670.71q-3.47 19.56-6.9 39.15-1.9 10.81-4.24 16.44c-12.65 30.3-49.6 42.88-77.75 24.37q-21.52-14.15-24.56-42.2" vector-effect="non-scaling-stroke"/><path stroke="#ffe2d6" d="M446.46 708.47c.44-4.2.62-8.5 1.34-12.59q22.1-125.44 44.2-250.86" vector-effect="non-scaling-stroke"/><path stroke="#fec9a0" d="M492 445.02q11.59-65.78 23.25-131.52.34-1.92 2.23-7.51" vector-effect="non-scaling-stroke"/><path stroke="#feac77" d="M492 445.02q-.66-1.08-.88-3.04" vector-effect="non-scaling-stroke"/><path stroke="#fd8d43" d="M286.54 425.77q-.61-.39-.68-.17c-.51 1.63-1.72 2.17-3.43 2.17q-137.67.04-275.35.04c-2.48 0-5.57 2.42-7.08-.62M1024 437.8l-.91 9.87a4.5 4.49 2.6 0 1-4.48 4.09q-123.77-.02-248.85-.01c-1.53 0-3.12.94-4.5-.76q-.42-.51-.67.09-.22.51-.2 1.45" vector-effect="non-scaling-stroke"/><path stroke="#feb883" d="m764.39 452.53-9.88-39.84" vector-effect="non-scaling-stroke"/><path stroke="#fec9a0" d="M754.51 412.69c-2.74-21.31-18.52-38.91-40.3-39.83-17.35-.74-33.12 8.73-40.48 24.59q-2.2 4.73-3.77 13.44-6.76 37.54-13.29 75.1" vector-effect="non-scaling-stroke"/><path stroke="#feac77" d="M656.67 485.99q-.42.07-.48-.23-2.2-10.6-4.62-21.37" vector-effect="non-scaling-stroke"/><path stroke="#feb883" d="m651.57 464.39-31.05-142.46" vector-effect="non-scaling-stroke"/><path stroke="#fed0b9" d="M651.57 464.39c-4.12 3.6-7.91 8.65-13.9 8.13a1.17 1.15 26.1 0 0-.9.3q-1.69 1.52-3.5 2.87c-2.69 2-4.98 4.58-7.77 6.66-1.63 1.21-2.89 2.84-4.67 4.07-4.48 3.08-8.39 6.99-12.72 10.3-1.56 1.18-3.3 3.27-5.36 4.33-3.91 2-6.99 5.74-10.22 8.74a.72.71-35.4 0 0-.15.84l.94 1.91a.89.88 52.5 0 1-.12.97l-3.77 4.32" vector-effect="non-scaling-stroke"/><path stroke="#fdab86" d="m589.43 517.83-1.52-5.67" vector-effect="non-scaling-stroke"/><path stroke="#ffeee2" d="M754.51 412.69q-.63 6.35-2.25 15.56-11.23 63.99-22.56 128" vector-effect="non-scaling-stroke"/><path stroke="#ffe2d6" d="m729.7 556.25-3.94 22.25" vector-effect="non-scaling-stroke"/><path stroke="#febca3" d="M725.76 578.5q-9.06 52.04-18.41 104.03c-.48 2.68-1.32 5.13-2.19 7.66" vector-effect="non-scaling-stroke"/><path stroke="#fdb5a5" d="M705.16 690.19c-9.64 22.9-36.24 33.14-58.54 21.36q-19.35-10.22-22.72-34.37" vector-effect="non-scaling-stroke"/><path stroke="#ffe2d6" d="M623.9 677.18c.34-3.28.28-6.63.84-9.79q15.87-90.72 31.93-181.4" vector-effect="non-scaling-stroke"/><path stroke="#feb185" d="m764.39 452.53 16.06 65.79" vector-effect="non-scaling-stroke"/><path stroke="#fed0b9" d="M780.45 518.32q-7.33 5.98-14.5 12.41c-2.77 2.49-6.48 3.12-9.56 5.47q-12.7 9.73-16.29 12.41c-3.47 2.6-4.54 4.79-9.12 5.34q-.5.06-.49.56.02 1.39-.79 1.74" vector-effect="non-scaling-stroke"/><path stroke="#fd8046" d="m263.13 558.51-1.3-1.03a1.34 1.3-25 0 0-.83-.29q-118.79.01-237.58.01c-5.38 0-11.26-.35-16.92-.44q-.9-.02-1.65-.78-.33-.34-.7-.05C1.21 558.25.82 563.21 0 566.7M1024 594.07c-.99-6.84-.43-16.81-4.94-20.04q-.41-.3-.58-.77c-2.82-7.93-9.59.35-12.21-6.48q-.17-.44-.57-.7-1.67-1.07-2.45-1.07-104.58-.04-210.13.02a.55.55 0 0 1-.53-.41l-.29-1.12q-.11-.42-.28-.02-.15.35-.43.55" vector-effect="non-scaling-stroke"/><path stroke="#fea578" d="m791.59 564.03-11.14-45.71" vector-effect="non-scaling-stroke"/><path stroke="#fd987b" d="m446.46 708.47-4.13-18.71" vector-effect="non-scaling-stroke"/><path stroke="#fd9f7a" d="m442.33 689.76-25.72-125.57" vector-effect="non-scaling-stroke"/><path stroke="#fea578" d="m416.61 564.19-10.69-52.38" vector-effect="non-scaling-stroke"/><path stroke="#fd987b" d="m623.9 677.18-1.96-8.68" vector-effect="non-scaling-stroke"/><path stroke="#fd9f7a" d="m621.94 668.5-32.51-150.67" vector-effect="non-scaling-stroke"/><path stroke="#fd8046" d="M416.61 564.19q-.58-.04-.63.49-.03.39-.42.39l-30.38-.07q-.47 0-.9-.16-1.88-.68-2.95 1.18" vector-effect="non-scaling-stroke"/><path stroke="#fc7249" d="M621.94 668.5q-.8.48-2.13.48-28.76.03-57.53.02-.49 0-.85.33l-1.52 1.38" vector-effect="non-scaling-stroke"/><path stroke="#fd9f7a" d="M791.59 564.03q8.07 33.04 16.13 66.11c4.38 17.94-6.37 35.25-24.34 38.86-12.99 2.6-27.08-4.1-33.29-15.45q-1.64-3-6.56-18.85-8.65-27.88-17.15-55.82-.08-.25-.21-.32-.16-.09-.41-.06" vector-effect="non-scaling-stroke"/><path stroke="#fc7249" d="m239.55 692.26-.98-.24q-.54-.13-.26-.62.63-1.11-.14-1.88-.51-.52-1.63-.52-118.27-.01-236.54.01M1024 690.31q-.24.07-.27.67-.05.81-.21.01-.11-.54.01-1.04a.78.77-83.4 0 0-.75-.95H707.52a1.18 1.17 7.8 0 0-1.13.85q-.32 1.09-1.23.34M442.33 689.76q-.92.14-1.84-.42-.57-.34-1.23-.34h-76.51q-.44 0-.79.26-1.4 1-2.35 0" vector-effect="non-scaling-stroke"/><path stroke="#fb674b" d="M1024 834H0" vector-effect="non-scaling-stroke"/><path stroke="#fb5e4e" d="M1024 905.56q-.19-.02-.27.41-.05.25-.19.04-.27-.38-.85-.41-.22-.01-.4.25-.11.15-.31.15H2.98q-.44 0-.8.25-.78.52-1.22-.1-.23-.31-.4.04-.24.48-.56.25" vector-effect="non-scaling-stroke"/></g><path fill="#ffb03a" d="M0 0h1024v119.05l-.43.76q-.28.48-.59.03-.75-1.09-2.04-1.09H3.53c-1.23 0-1.8.54-2.9.98q-.14.06-.13.02 0-.13.01-.26.04-.62-.21.11-.14.42-.3.34V0Z"/><path fill="#fea73c" d="M1024 119.05v73.06q-1.99-1.19-3.44-1.19-286-.02-572 .17-5.24.01-9.85-.18c-21.37-49.86-90.16-49.92-109.97 1.07q-.4-.13-.59-.73a.04.04 0 0 0-.07 0q-.06.19-.12.4-.11.42-.17-.01l-.05-.36q-.01-.08-.08-.09-1.42-.25-5.47-.25-159.67-.07-319.34 0-.49 0-.91.26-.91.59-1.94.75v-72.01q.16.08.3-.34.25-.73.21-.11-.01.13-.01.26-.01.04.13-.02c1.1-.44 1.67-.98 2.9-.98h1017.41q1.29 0 2.04 1.09.31.45.59-.03l.43-.76Z"/><path fill="#fff" d="M438.71 190.91q3.06 8.8 4.66 18.58c-.84 4.01-.76 8.41-1.39 11.98q-22.02 126.05-44.35 252.05l-16.3 92.5-21.72 123.24q-6.33 35.84-12.65 71.73-4.17 23.69-21.97 37.63c-33.28 26.06-81.05 9.99-92.89-30.14q-3.73-12.63-1.54-25.17 4.47-25.52 8.99-51.05l23.58-133.75 23.41-132.74 21.28-120.76q9.17-52.13 18.43-104.26.48-2.71 2.49-8.77c19.81-50.99 88.6-50.93 109.97-1.07Z"/><path fill="#fe9e3f" d="M1024 192.11v113.2q-.33-.3-.3-1.08.01-.26-.18-.08-.13.13-.11.36.12 1.44.07 2.89a.38.37.8 0 1-.38.36q-201-.02-399.68 0c-1.93 0-3.96.31-5.93.5-16.62-47.24-81.62-49.37-100.01-2.27q-.97-.23-.7-1.34.17-.66-.51-.66l-52.29.05q-.49 0-.66.47-.15.42-.33.5l-19.62-95.52q-1.6-9.78-4.66-18.58 4.61.19 9.85.18 286-.19 572-.17 1.45 0 3.44 1.19ZM328.74 191.98q-2.01 6.06-2.49 8.77-9.26 52.13-18.43 104.26l-2.91-.86q-.47-.14-.96-.14-148.88-.03-297.76.01c-1.14 0-2.35.43-3.48.69a.93.93 0 0 0-.66.54L0 309.96V191.95q1.03-.16 1.94-.75.42-.26.91-.26 159.67-.07 319.34 0 4.05 0 5.47.25.07.01.08.09l.05.36q.06.43.17.01.06-.21.12-.4a.04.04 0 0 1 .07 0q.19.6.59.73Z"/><path fill="#fedcc5" d="m443.37 209.49 19.62 95.52 28.13 136.97q-.12 1.01-.72 1.95-.31.5-.57-.03-.53-1.13-1.56-.39-7.22 5.24-16 13.64c-3.43 3.29-5.99 4.3-10.56 3.47a1.09 1.06-59.5 0 0-.91.25q-5.04 4.4-10.06 8.83c-.67.58-1.88 1.05-2.4 1.64q-3.65 4.16-7.74 7.87c-3.42 3.11-8.52 5.57-12.26 9.11q-1.62 1.53-.41 3.1.42.55-.28.56l-2.42.03q-.66.01-.15.41.25.2.55.23a.7.7 0 0 1 .41 1.22c-6.66 6.01-14.62 11.66-20.12 17.94q-3.97-18.92-7.69-37.79-.05-.24-.18-.36-.23-.21-.42-.14 22.33-126 44.35-252.05c.63-3.57.55-7.97 1.39-11.98Z"/><path fill="#fff" d="m617.49 308.26 3.03 13.67q-.43 7.7-1.52 13.82-15.64 88.23-31.09 176.41l-28 158.55q-3.47 19.56-6.9 39.15-1.9 10.81-4.24 16.44c-12.65 30.3-49.6 42.88-77.75 24.37q-21.52-14.15-24.56-42.2c.44-4.2.62-8.5 1.34-12.59q22.1-125.44 44.2-250.86 11.59-65.78 23.25-131.52.34-1.92 2.23-7.51c18.39-47.1 83.39-44.97 100.01 2.27Z"/><path fill="#fd9341" d="M517.48 305.99q-1.89 5.59-2.23 7.51-11.66 65.74-23.25 131.52-.66-1.08-.88-3.04l-28.13-136.97q.18-.08.33-.5.17-.47.66-.47l52.29-.05q.68 0 .51.66-.27 1.11.7 1.34ZM307.82 305.01l-21.28 120.76q-.61-.39-.68-.17c-.51 1.63-1.72 2.17-3.43 2.17q-137.67.04-275.35.04c-2.48 0-5.57 2.42-7.08-.62V309.96l2.05-4.71a.93.93 0 0 1 .66-.54c1.13-.26 2.34-.69 3.48-.69q148.88-.04 297.76-.01.49 0 .96.14l2.91.86ZM1024 305.31V437.8l-.91 9.87a4.5 4.49 2.6 0 1-4.48 4.09q-123.77-.02-248.85-.01c-1.53 0-3.12.94-4.5-.76q-.42-.51-.67.09-.22.51-.2 1.45l-9.88-39.84c-2.74-21.31-18.52-38.91-40.3-39.83-17.35-.74-33.12 8.73-40.48 24.59q-2.2 4.73-3.77 13.44-6.76 37.54-13.29 75.1-.42.07-.48-.23-2.2-10.6-4.62-21.37l-31.05-142.46-3.03-13.67c1.97-.19 4-.5 5.93-.5q198.68-.02 399.68 0a.38.37.8 0 0 .38-.36q.05-1.45-.07-2.89-.02-.23.11-.36.19-.18.18.08-.03.78.3 1.08Z"/><path fill="#fedcc5" d="m620.52 321.93 31.05 142.46c-4.12 3.6-7.91 8.65-13.9 8.13a1.17 1.15 26.1 0 0-.9.3q-1.69 1.52-3.5 2.87c-2.69 2-4.98 4.58-7.77 6.66-1.63 1.21-2.89 2.84-4.67 4.07-4.48 3.08-8.39 6.99-12.72 10.3-1.56 1.18-3.3 3.27-5.36 4.33-3.91 2-6.99 5.74-10.22 8.74a.72.71-35.4 0 0-.15.84l.94 1.91a.89.88 52.5 0 1-.12.97l-3.77 4.32-1.52-5.67q15.45-88.18 31.09-176.41 1.09-6.12 1.52-13.82Z"/><path fill="#fff" d="M754.51 412.69q-.63 6.35-2.25 15.56-11.23 63.99-22.56 128l-3.94 22.25q-9.06 52.04-18.41 104.03c-.48 2.68-1.32 5.13-2.19 7.66-9.64 22.9-36.24 33.14-58.54 21.36q-19.35-10.22-22.72-34.37c.34-3.28.28-6.63.84-9.79q15.87-90.72 31.93-181.4 6.53-37.56 13.29-75.1 1.57-8.71 3.77-13.44c7.36-15.86 23.13-25.33 40.48-24.59 21.78.92 37.56 18.52 40.3 39.83Z"/><path fill="#fedcc5" d="m754.51 412.69 9.88 39.84 16.06 65.79q-7.33 5.98-14.5 12.41c-2.77 2.49-6.48 3.12-9.56 5.47q-12.7 9.73-16.29 12.41c-3.47 2.6-4.54 4.79-9.12 5.34q-.5.06-.49.56.02 1.39-.79 1.74 11.33-64.01 22.56-128 1.62-9.21 2.25-15.56Z"/><path fill="#fd8644" d="m286.54 425.77-23.41 132.74-1.3-1.03a1.34 1.3-25 0 0-.83-.29q-118.79.01-237.58.01c-5.38 0-11.26-.35-16.92-.44q-.9-.02-1.65-.78-.33-.34-.7-.05C1.21 558.25.82 563.21 0 566.7V427.19c1.51 3.04 4.6.62 7.08.62q137.68 0 275.35-.04c1.71 0 2.92-.54 3.43-2.17q.07-.22.68.17ZM1024 437.8v156.27c-.99-6.84-.43-16.81-4.94-20.04q-.41-.3-.58-.77c-2.82-7.93-9.59.35-12.21-6.48q-.17-.44-.57-.7-1.67-1.07-2.45-1.07-104.58-.04-210.13.02a.55.55 0 0 1-.53-.41l-.29-1.12q-.11-.42-.28-.02-.15.35-.43.55l-11.14-45.71-16.06-65.79q-.02-.94.2-1.45.25-.6.67-.09c1.38 1.7 2.97.76 4.5.76q125.08-.01 248.85.01a4.5 4.49 2.6 0 0 4.48-4.09l.91-9.87Z"/><path fill="#fec4ac" d="M491.12 441.98q.22 1.96.88 3.04-22.1 125.42-44.2 250.86c-.72 4.09-.9 8.39-1.34 12.59l-4.13-18.71-25.72-125.57-10.69-52.38c5.5-6.28 13.46-11.93 20.12-17.94a.7.7 0 0 0-.41-1.22q-.3-.03-.55-.23-.51-.4.15-.41l2.42-.03q.7-.01.28-.56-1.21-1.57.41-3.1c3.74-3.54 8.84-6 12.26-9.11q4.09-3.71 7.74-7.87c.52-.59 1.73-1.06 2.4-1.64q5.02-4.43 10.06-8.83a1.09 1.06-59.5 0 1 .91-.25c4.57.83 7.13-.18 10.56-3.47q8.78-8.4 16-13.64 1.03-.74 1.56.39.26.53.57.03.6-.94.72-1.95ZM651.57 464.39q2.42 10.77 4.62 21.37.06.3.48.23-16.06 90.68-31.93 181.4c-.56 3.16-.5 6.51-.84 9.79l-1.96-8.68-32.51-150.67 3.77-4.32a.89.88 52.5 0 0 .12-.97l-.94-1.91a.72.71-35.4 0 1 .15-.84c3.23-3 6.31-6.74 10.22-8.74 2.06-1.06 3.8-3.15 5.36-4.33 4.33-3.31 8.24-7.22 12.72-10.3 1.78-1.23 3.04-2.86 4.67-4.07 2.79-2.08 5.08-4.66 7.77-6.66q1.81-1.35 3.5-2.87a1.17 1.15 26.1 0 1 .9-.3c5.99.52 9.78-4.53 13.9-8.13Z"/><path fill="#fd8644" d="M397.63 473.52q.19-.07.42.14.13.12.18.36 3.72 18.87 7.69 37.79l10.69 52.38q-.58-.04-.63.49-.03.39-.42.39l-30.38-.07q-.47 0-.9-.16-1.88-.68-2.95 1.18l16.3-92.5Z"/><path fill="#fc7947" d="m587.91 512.16 1.52 5.67 32.51 150.67q-.8.48-2.13.48-28.76.03-57.53.02-.49 0-.85.33l-1.52 1.38 28-158.55Z"/><path fill="#fec4ac" d="m780.45 518.32 11.14 45.71q8.07 33.04 16.13 66.11c4.38 17.94-6.37 35.25-24.34 38.86-12.99 2.6-27.08-4.1-33.29-15.45q-1.64-3-6.56-18.85-8.65-27.88-17.15-55.82-.08-.25-.21-.32-.16-.09-.41-.06l3.94-22.25q.81-.35.79-1.74-.01-.5.49-.56c4.58-.55 5.65-2.74 9.12-5.34q3.59-2.68 16.29-12.41c3.08-2.35 6.79-2.98 9.56-5.47q7.17-6.43 14.5-12.41Z"/><path fill="#fc7947" d="m263.13 558.51-23.58 133.75-.98-.24q-.54-.13-.26-.62.63-1.11-.14-1.88-.51-.52-1.63-.52-118.27-.01-236.54.01V566.7c.82-3.49 1.21-8.45 4.15-10.77q.37-.29.7.05.75.76 1.65.78c5.66.09 11.54.44 16.92.44q118.79 0 237.58-.01a1.34 1.3-25 0 1 .83.29l1.3 1.03ZM1024 594.07v96.24q-.24.07-.27.67-.05.81-.21.01-.11-.54.01-1.04a.78.77-83.4 0 0-.75-.95H707.52a1.18 1.17 7.8 0 0-1.13.85q-.32 1.09-1.23.34c.87-2.53 1.71-4.98 2.19-7.66q9.35-51.99 18.41-104.03.25-.03.41.06.13.07.21.32 8.5 27.94 17.15 55.82 4.92 15.85 6.56 18.85c6.21 11.35 20.3 18.05 33.29 15.45 17.97-3.61 28.72-20.92 24.34-38.86q-8.06-33.07-16.13-66.11.28-.2.43-.55.17-.4.28.02l.29 1.12a.55.55 0 0 0 .53.41q105.55-.06 210.13-.02.78 0 2.45 1.07.4.26.57.7c2.62 6.83 9.39-1.45 12.21 6.48q.17.47.58.77c4.51 3.23 3.95 13.2 4.94 20.04ZM416.61 564.19l25.72 125.57q-.92.14-1.84-.42-.57-.34-1.23-.34h-76.51q-.44 0-.79.26-1.4 1-2.35 0l21.72-123.24q1.07-1.86 2.95-1.18.43.16.9.16l30.38.07q.39 0 .42-.39.05-.53.63-.49Z"/><path fill="#fb6b4a" d="m621.94 668.5 1.96 8.68q3.37 24.15 22.72 34.37c22.3 11.78 48.9 1.54 58.54-21.36q.91.75 1.23-.34a1.18 1.17 7.8 0 1 1.13-.85h315.26a.78.77-83.4 0 1 .75.95q-.12.5-.01 1.04.16.8.21-.01.03-.6.27-.67V834H0V689.01q118.27-.02 236.54-.01 1.12 0 1.63.52.77.77.14 1.88-.28.49.26.62l.98.24q-4.52 25.53-8.99 51.05-2.19 12.54 1.54 25.17c11.84 40.13 59.61 56.2 92.89 30.14q17.8-13.94 21.97-37.63 6.32-35.89 12.65-71.73.95 1 2.35 0 .35-.26.79-.26h76.51q.66 0 1.23.34.92.56 1.84.42l4.13 18.71q3.04 28.05 24.56 42.2c28.15 18.51 65.1 5.93 77.75-24.37q2.34-5.63 4.24-16.44 3.43-19.59 6.9-39.15l1.52-1.38q.36-.33.85-.33 28.77.01 57.53-.02 1.33 0 2.13-.48Z"/><path fill="#fb624c" d="M1024 834v71.56q-.19-.02-.27.41-.05.25-.19.04-.27-.38-.85-.41-.22-.01-.4.25-.11.15-.31.15H2.98q-.44 0-.8.25-.78.52-1.22-.1-.23-.31-.4.04-.24.48-.56.25V834h1024Z"/><path fill="#fa594f" d="M1024 905.56V1024H0V906.44q.32.23.56-.25.17-.35.4-.04.44.62 1.22.1.36-.25.8-.25h1019q.2 0 .31-.15.18-.26.4-.25.58.03.85.41.14.21.19-.04.08-.43.27-.41Z"/></svg>